<svg xmlns="http://www.w3.org/2000/svg" width="410" height="404" viewBox="0 0 410 404" fill="none">
  <path d="M399.641 59.5246L215.643 388.545C211.844 395.338 202.084 395.378 198.228 388.618L10.5817 59.5563C6.38087 52.1896 12.6802 43.2665 21.0281 44.7586L205.223 77.6824C206.398 77.8924 207.601 77.8904 208.776 77.6763L389.119 44.8058C397.439 43.2894 403.768 52.1434 399.641 59.5246Z" fill="url(#paint0_linear)"/>
  <path d="M292.965 1.5744L156.801 28.2552C154.563 28.6937 152.902 30.5903 152.771 32.8681L144.01 185.343C143.859 187.962 146.123 190.082 148.718 189.626L191.922 182.21C194.691 181.724 197.226 184.054 196.758 186.833L183.83 262.584C183.346 265.442 185.941 267.834 188.736 267.111L212.947 260.961C215.74 260.238 218.336 262.627 217.854 265.483L199.336 371.295C198.584 375.622 204.756 377.782 206.942 373.845L208.5 371.111L357.118 107.436C358.534 104.883 356.371 101.866 353.546 102.399L309.83 110.552C306.984 111.089 304.784 108.209 305.931 105.567L318.847 75.5777C319.996 72.9313 317.789 70.0467 314.939 70.5937L270.657 78.9939C267.803 79.5415 265.6 76.651 266.758 74.0063L299.701 1.88939C300.86 -0.760847 298.653 -3.64866 295.797 -3.08526e-05L292.965 1.5744Z" fill="url(#paint1_linear)"/>
  <defs>
    <linearGradient id="paint0_linear" x1="6.00017" y1="32.9999" x2="235" y2="344" gradientUnits="userSpaceOnUse">
      <stop stop-color="#41D1FF"/>
      <stop offset="1" stop-color="#BD34FE"/>
    </linearGradient>
    <linearGradient id="paint1_linear" x1="194.651" y1="8.81818" x2="236.076" y2="292.989" gradientUnits="userSpaceOnUse">
      <stop stop-color="#FFEA83"/>
      <stop offset="0.0833333" stop-color="#FFDD35"/>
      <stop offset="1" stop-color="#FFA800"/>
    </linearGradient>
  </defs>
</svg>


